<svg version="1.2" xmlns="http://www.w3.org/2000/svg" viewBox="0 0 1200 628" width="1200" height="628">
	<style>
		.s0 { fill: #ffffff } 
		.s1 { fill: #262626 } 
		.s2 { fill: #4b2c6d } 
		.s3 { fill: #5ecbf1 } 
	</style>
	<path class="s0" d="m0 16c0-8.84 7.16-16 16-16h1168c8.84 0 16 7.16 16 16v596c0 8.84-7.16 16-16 16h-1168c-8.84 0-16-7.16-16-16z"/>
	<g>
		<g>
			<path class="s1" d="m382.09 314.76h18.17v28.7q-12.03 13.43-33.33 13.43-17.82-0.01-29.92-11.81-12.09-11.8-12.09-29.8 0-17.99 12.33-30.03 12.32-12.04 29.74-12.04 17.43 0 30.27 11.46l-9.38 13.54q-5.44-4.75-10.01-6.54-4.57-1.8-9.9-1.79-10.3 0-17.36 7-7.06 7-7.06 18.46 0 11.45 6.78 18.34 6.77 6.88 16.15 6.88 9.37 0 15.62-3.58c0 0 0-22.22-0.01-22.22z"/>
			<path class="s1" d="m446.53 308.97q-7.76 0-11.58 5.5-3.82 5.49-3.82 14.53v26.96h-17.36v-62.27h17.36v8.22q3.36-3.82 8.39-6.48 5.04-2.67 10.24-2.78l0.12 16.32z"/>
			<path class="s1" d="m520.7 324.82q0 13.54-9.37 22.8-9.38 9.26-23.55 9.26-14.18 0-23.55-9.26-9.38-9.26-9.38-22.8 0-13.54 9.38-22.86 9.37-9.32 23.55-9.32 14.18 0 23.55 9.32 9.37 9.33 9.37 22.86zm-48.37 0q0 7.64 4.33 12.45 4.34 4.8 11.12 4.8 6.76 0 11.11-4.8 4.34-4.8 4.34-12.45 0-7.64-4.34-12.5-4.33-4.86-11.11-4.86-6.77 0-11.12 4.86-4.33 4.87-4.33 12.5z"/>
			<path class="s1" d="m571.72 327.26v-33.57h17.47v62.27h-17.47v-8.21q-6.48 9.14-16.72 9.14-10.24 0-17.19-6.43-6.95-6.42-6.95-19.04v-37.73h17.47v33.91q0 14.35 10.54 14.35 5.21 0 9.03-3.76 3.82-3.76 3.82-10.93z"/>
			<path class="s1" d="m620.94 321.23v34.72h-17.36v-62.26h17.36v6.95q7.88-7.99 17.71-7.99 9.83 0 16.49 6.94 6.66 6.95 6.66 18.52v37.84h-17.36v-35.18q0-14.35-10.54-14.35-5.2 0-9.08 3.76-3.88 3.76-3.88 11.05z"/>
			<path class="s1" d="m700.42 356.89q-11.05 0-19.74-9.38-8.68-9.37-8.67-23.26 0-13.89 8.45-22.74 8.44-8.86 19.79-8.86 11.34 0 18.52 7.99v-30.56h17.36v85.87h-17.36v-8.21q-7.29 9.15-18.35 9.15zm-10.93-31.95q0 7.53 4.51 12.33 4.51 4.8 10.53 4.8 6.02 0 10.25-4.8 4.22-4.81 4.22-12.39 0-7.57-4.22-12.61-4.23-5.04-10.37-5.04-6.13 0-10.53 5.09-4.39 5.1-4.39 12.62z"/>
			<path class="s1" d="m790.26 339.98q13.31 0.01 21.76-10.53l11.57 11.92q-13.77 15.51-32.46 15.51-18.7-0.01-30.79-11.81-12.09-11.8-12.09-29.8 0-17.99 12.33-30.03 12.32-12.04 30.15-12.04 19.9 0 33.33 15.16l-11.22 12.74q-8.57-10.65-21.3-10.65-10.18 0-17.41 6.65-7.24 6.66-7.24 17.95 0 11.29 6.83 18.11 6.81 6.83 16.54 6.82z"/>
			<path class="s1" d="m894.98 324.82q0 13.54-9.37 22.8-9.38 9.26-23.55 9.26-14.18 0-23.56-9.26-9.37-9.26-9.37-22.8 0-13.54 9.37-22.86 9.38-9.32 23.56-9.32 14.17 0 23.55 9.32 9.37 9.33 9.37 22.86zm-48.38 0q0 7.64 4.34 12.45 4.34 4.8 11.12 4.8 6.76 0 11.11-4.8 4.34-4.8 4.34-12.45 0-7.64-4.34-12.5-4.34-4.86-11.11-4.86-6.77 0-11.12 4.86-4.34 4.87-4.34 12.5z"/>
			<path class="s1" d="m923.06 321.23v34.72h-17.37v-62.26h17.37v6.95q7.87-7.99 17.71-7.99 9.83 0 16.49 6.94 6.66 6.95 6.66 18.52v37.84h-17.37v-35.18q0.01-14.35-10.53-14.35-5.21 0-9.09 3.76-3.87 3.76-3.87 11.05z"/>
			<path class="s1" d="m996.62 306.19v27.89q0 3.59 1.85 5.61 1.85 2.03 4.4 2.03 4.86 0 8.22-4.4l6.48 12.16q-8.1 7.41-17.07 7.41-8.97 0-15.16-5.91-6.2-5.9-6.2-16.09v-28.7h-7.29v-12.5h7.29v-18.63h17.48v18.63h15.05v12.5z"/>
			<path class="s1" d="m1057.57 308.97q-7.76 0-11.58 5.5-3.82 5.49-3.82 14.53v26.96h-17.36v-62.27h17.36v8.22q3.36-3.82 8.39-6.48 5.03-2.67 10.24-2.78l0.12 16.32z"/>
			<path class="s1" d="m1131.75 324.82q0 13.54-9.38 22.8-9.38 9.26-23.55 9.26-14.18 0-23.55-9.26-9.37-9.26-9.37-22.8 0-13.54 9.37-22.86 9.37-9.32 23.55-9.32 14.18 0 23.55 9.32 9.38 9.33 9.38 22.86zm-48.39 0q0 7.64 4.34 12.45 4.33 4.8 11.11 4.8 6.77 0 11.12-4.8 4.33-4.8 4.34-12.45-0.01-7.64-4.34-12.5-4.34-4.86-11.12-4.86-6.76 0-11.11 4.86-4.34 4.87-4.34 12.5z"/>
			<path fill-rule="evenodd" class="s1" d="m1159.97 270.08v85.88h-17.36v-85.88z"/>
		</g>
		<path class="s1" d="m316.76 347.42l-7.94-7.95q7.65-10.42 7.65-24.49 0-17.82-12.26-29.8-12.27-11.98-30.21-11.98-17.94 0-30.21 11.98-12.26 11.99-12.26 29.8 0 17.83 12.26 29.8 12.27 11.98 30.21 11.98 12.75 0 22.64-6.07l8.42 8.42zm-42.71-6.39q-10.13 0-17.07-7.58-6.95-7.58-6.95-18.41 0-10.82 6.95-18.46 6.94-7.63 17.07-7.63 10.13 0 17.08 7.63 6.94 7.64 6.94 18.46 0 6.23-2.3 11.38l-6.72-6.72-11.7 11.7 7.17 7.18q-4.72 2.45-10.47 2.45z"/>
		<g>
			<path class="s2" d="m152.04 392.64h-65.44c-25.19 0-45.6-20.41-45.6-45.6v-65.44c0-25.19 20.41-45.6 45.6-45.6h65.45c25.18 0 45.59 20.41 45.59 45.6v65.45c0 25.18-20.41 45.59-45.6 45.59z"/>
			<path class="s0" d="m163.62 346.8l-7.98-7.98c4.69-6.79 7.45-15.03 7.45-23.91h-0.03c0-21.86-16.6-39.84-37.86-42v18.27c12.01 2.17 20.93 13.22 19.69 26.11-0.28 2.97-1.13 5.78-2.42 8.35l-9.28-9.28-12.85 12.86 8.46 8.46q-2.63 0.93-5.49 1.22c-12.86 1.26-23.9-7.59-26.13-19.55h-18.27c2.22 21.21 20.16 37.73 41.98 37.73v0.03c7.83 0 15.17-2.15 21.47-5.88l8.41 8.41z"/>
			<path class="s3" d="m116.38 260.72c-0.1 0-0.3 0.01-0.3 0.01-26.16 2.31-47.02 23.17-49.31 49.37 0 0.01-0.02 0.26-0.02 0.28 0 0.02-0.01 0.15-0.01 0.2 0 1.69 1.37 3.07 3.07 3.07 1.64 0 2.98-1.3 3.05-2.92 2-23.27 20.49-41.83 43.72-43.89 1.55-0.1 2.79-1.35 2.86-2.91q0-0.07 0-0.15c0-1.69-1.37-3.06-3.06-3.06z"/>
			<path class="s3" d="m116.38 272.89q-0.16 0-0.32 0.01l-0.05 0.01c-19.62 2.27-35.25 18.23-37.11 37.31 0 0-0.03 0.25-0.03 0.39 0 1.69 1.38 3.06 3.07 3.06 1.64 0 2.98-1.29 3.05-2.91q0-0.03 0-0.05c1.92-16.57 15.04-29.72 31.58-31.69v-0.02c1.55-0.09 2.8-1.33 2.87-2.89q0-0.07 0-0.15c0-1.7-1.37-3.07-3.06-3.07z"/>
			<path class="s3" d="m116.38 285.11q-0.29 0-0.57 0.06c-12.61 2.14-22.59 12.16-24.68 24.79q-0.01 0.06-0.01 0.11c-0.04 0.18-0.06 0.43-0.06 0.54 0 1.7 1.37 3.07 3.06 3.07q0.19 0 0.36-0.03c1.44-0.16 2.56-1.32 2.69-2.76 0.01-0.05 0.02-0.25 0.03-0.28 1.76-9.86 9.53-17.61 19.38-19.39 0 0 0.11-0.01 0.16-0.01 1.47-0.18 2.63-1.4 2.7-2.9q0-0.07 0-0.15c0-1.68-1.37-3.05-3.06-3.05z"/>
		</g>
	</g>
</svg>